HIERARCHY
ROOT Hips
{
	OFFSET 0.000000 0.000000 0.000000
	CHANNELS 6 Xposition Yposition Zposition Xrotation Yrotation Zrotation
	JOINT LeftUpLeg_virtual
	{
		OFFSET 0.000000 0.000000 0.000000
		CHANNELS 3 Xrotation Yrotation Zrotation
		JOINT LeftUpLeg
		{
			OFFSET 10.205400 -3.823500 0.155100
			CHANNELS 3 Xrotation Yrotation Zrotation
			JOINT LeftLeg
			{
				OFFSET 0.708757 -12.982077 0.567790
				CHANNELS 3 Xrotation Yrotation Zrotation
				JOINT LeftFoot
				{
					OFFSET -0.708756 -10.717838 -2.184338
					CHANNELS 3 Xrotation Yrotation Zrotation
					JOINT LeftToeBase
					{
						OFFSET 0.108149 -7.191104 7.560241
						CHANNELS 3 Xrotation Yrotation Zrotation
						JOINT LeftToe_End
						{
							OFFSET 0.070230 0.081724 4.490308
							CHANNELS 3 Xrotation Yrotation Zrotation
							End Site
							{
								OFFSET 0 0 0
							}
						}
					}
				}
			}
		}
	}
	JOINT RightUpLeg_virtual
	{
		OFFSET 0.000000 0.000000 0.000000
		CHANNELS 3 Xrotation Yrotation Zrotation
		JOINT RightUpLeg
		{
			OFFSET -10.205400 -3.823500 0.005500
			CHANNELS 3 Xrotation Yrotation Zrotation
			JOINT RightLeg
			{
				OFFSET -0.708756 -12.982134 0.610632
				CHANNELS 3 Xrotation Yrotation Zrotation
				JOINT RightFoot
				{
					OFFSET 0.708754 -10.717769 -1.945823
					CHANNELS 3 Xrotation Yrotation Zrotation
					JOINT RightToeBase
					{
						OFFSET -0.108140 -7.191069 7.372968
						CHANNELS 3 Xrotation Yrotation Zrotation
						JOINT RightToe_End
						{
							OFFSET -0.070227 0.081735 4.479403
							CHANNELS 3 Xrotation Yrotation Zrotation
							End Site
							{
								OFFSET 0 0 0
							}
						}
					}
				}
			}
		}
	}
	JOINT Spine_virtual
	{
		OFFSET 0.000000 0.000000 0.000000
		CHANNELS 3 Xrotation Yrotation Zrotation
		JOINT Spine
		{
			OFFSET 0.000000 6.876099 0.125700
			CHANNELS 3 Xrotation Yrotation Zrotation
			JOINT Spine1
			{
				OFFSET 0.000000 5.730043 0.104720
				CHANNELS 3 Xrotation Yrotation Zrotation
				JOINT Spine1_split
				{
					OFFSET 0.000000 5.730043 0.104720
					CHANNELS 3 Xrotation Yrotation Zrotation
					JOINT Spine2
					{
						OFFSET 0.000000 5.730043 0.104720
						CHANNELS 3 Xrotation Yrotation Zrotation
						JOINT Neck_virtual
						{
							OFFSET 0.000000 0.000000 0.000000
							CHANNELS 3 Xrotation Yrotation Zrotation
							JOINT Neck
							{
								OFFSET 0.000000 10.314075 0.188496
								CHANNELS 3 Xrotation Yrotation Zrotation
								JOINT Head
								{
									OFFSET 0.000000 7.643700 -2.377400
									CHANNELS 3 Xrotation Yrotation Zrotation
									JOINT HeadTop_End
									{
										OFFSET 0.000000 43.788605 -13.619600
										CHANNELS 3 Xrotation Yrotation Zrotation
										End Site
										{
											OFFSET 0 0 0
										}
									}
								}
							}
						}
						JOINT LeftShoulder_virtual
						{
							OFFSET 0.000000 0.000000 0.000000
							CHANNELS 3 Xrotation Yrotation Zrotation
							JOINT LeftShoulder
							{
								OFFSET 2.196100 4.412489 0.087492
								CHANNELS 3 Xrotation Yrotation Zrotation
								JOINT LeftShoulder_split
								{
									OFFSET 2.196100 4.412489 0.087492
									CHANNELS 3 Xrotation Yrotation Zrotation
									JOINT LeftArm
									{
										OFFSET 8.771219 -2.981674 -0.026999
										CHANNELS 3 Xrotation Yrotation Zrotation
										JOINT LeftForeArm
										{
											OFFSET 8.512804 0.000000 -0.000000
											CHANNELS 3 Xrotation Yrotation Zrotation
											JOINT LeftHand
											{
												OFFSET 18.484802 0.000000 -0.000000
												CHANNELS 3 Xrotation Yrotation Zrotation
												End Site
												{
													OFFSET 0 0 0
												}
											}
										}
									}
								}
							}
						}
						JOINT RightShoulder_virtual
						{
							OFFSET 0.000000 0.000000 0.000000
							CHANNELS 3 Xrotation Yrotation Zrotation
							JOINT RightShoulder
							{
								OFFSET -2.196100 4.412496 0.070690
								CHANNELS 3 Xrotation Yrotation Zrotation
								JOINT RightShoulder_split
								{
									OFFSET -2.196100 4.412496 0.070690
									CHANNELS 3 Xrotation Yrotation Zrotation
									JOINT RightArm
									{
										OFFSET -8.771282 -2.981682 -0.094208
										CHANNELS 3 Xrotation Yrotation Zrotation
										JOINT RightForeArm
										{
											OFFSET -8.494598 0.000000 0.000000
											CHANNELS 3 Xrotation Yrotation Zrotation
											JOINT RightHand
											{
												OFFSET -18.483803 0.000000 0.000001
												CHANNELS 3 Xrotation Yrotation Zrotation
												End Site
												{
													OFFSET 0 0 0
												}
											}
										}
									}
								}
							}
						}
					}
				}
			}
		}
	}
}
MOTION
Frames: 8
Frame Time: 0.03333333
1.911545 34.493759 0.213966 0.000000 0.000000 0.000000 -29.029042 -47.093458 -20.963860 2.171804 16.384925 -3.783529 31.723223 2.731351 5.592079 -12.707377 6.410379 -4.232299 -2.550833 -1.992903 0.718937 0.000000 0.000000 0.000000 -27.014862 -45.174157 -19.648069 15.345507 -9.174465 -1.246964 23.889621 18.748523 -1.555826 -28.724381 -27.222542 9.972903 -2.818753 5.166827 -18.258720 0.000000 0.000000 0.000000 -29.285058 -42.370382 -22.043466 8.028220 -1.929620 -1.147186 3.472263 -0.688661 -1.217713 0.126184 -0.039752 0.014545 0.000000 0.000000 0.000000 6.872812 0.423308 -0.575033 4.106714 5.271169 1.874942 -15.534316 -10.283856 11.236464 0.000000 0.000000 0.000000 5.625875 -1.141289 -1.034065 4.182331 -5.439730 -11.058687 6.201321 -7.937275 0.574138 -31.136811 7.094883 -31.938381 7.413965 -48.967901 4.398185 0.000000 0.000000 0.000000 4.002528 -1.362578 -0.048234 -2.256756 8.898860 17.801838 1.733031 -1.372320 -0.096733 -12.018185 2.828885 58.617592 -7.809652 36.960961 2.384624 0.000000 0.000000 0.000000 
2.157661 34.534431 0.572907 0.000000 0.000000 0.000000 -31.129045 -49.943986 -23.307175 3.305453 17.329894 -4.465224 30.322799 2.807751 5.228544 -13.054339 7.488530 -1.936922 -1.261880 -1.670725 0.632507 0.000000 0.000000 0.000000 -28.790989 -47.771685 -21.717307 14.209532 -9.318133 -1.984879 23.897676 18.706053 -1.743040 -26.396564 -26.613907 10.735567 -3.988917 5.465865 -18.054705 0.000000 0.000000 0.000000 -31.239506 -45.034487 -24.294011 8.298947 -1.896306 -1.382683 3.346451 -0.705788 -1.271556 0.120982 -0.062253 0.018170 0.000000 0.000000 0.000000 6.807542 0.414343 -0.547680 4.117297 5.426367 1.736888 -15.722368 -9.564373 11.168989 0.000000 0.000000 0.000000 5.544812 -1.129742 -1.012813 4.235528 -5.368376 -10.922760 6.024579 -7.992016 0.459427 -31.003093 7.241265 -31.811463 7.250005 -48.799270 4.323065 0.000000 0.000000 0.000000 3.946018 -1.385472 -0.043886 -2.272341 9.023947 18.013053 2.047569 -1.353211 -0.073272 -12.525278 3.033118 58.761026 -7.914045 36.653373 2.183104 0.000000 0.000000 0.000000 
2.405931 34.565804 0.944245 0.000000 0.000000 0.000000 -33.547287 -52.550263 -25.898018 4.622687 17.996531 -5.103695 29.099478 2.543621 4.819124 -13.629084 8.360174 -0.420081 -0.576840 -1.371829 0.518416 0.000000 0.000000 0.000000 -30.830576 -50.357188 -24.003546 13.157101 -9.522583 -2.540471 24.032533 18.172627 -1.708332 -24.749633 -25.913920 10.445624 -4.699212 5.645597 -17.352318 0.000000 0.000000 0.000000 -33.335155 -47.562938 -26.740493 8.465618 -1.910583 -1.614141 3.228862 -0.728848 -1.298630 0.138482 -0.083362 0.024337 0.000000 0.000000 0.000000 6.781983 0.395962 -0.502063 4.156389 5.600520 1.597703 -15.995509 -8.822948 11.129823 0.000000 0.000000 0.000000 5.542529 -1.122348 -0.961794 4.331443 -5.208447 -10.726127 5.894372 -8.073780 0.278803 -30.941973 7.341862 -31.773203 7.127506 -48.735838 4.293425 0.000000 0.000000 0.000000 3.966651 -1.411955 -0.039406 -2.269085 9.146235 18.182042 2.411558 -1.185885 0.029958 -12.985875 3.177100 58.860794 -7.992269 36.417995 1.962151 0.000000 0.000000 0.000000 
2.651854 34.585438 1.292334 0.000000 0.000000 0.000000 -36.229666 -54.844486 -28.739377 5.911451 18.512835 -5.562252 28.143453 2.101486 4.351872 -14.260094 8.951016 0.388921 -0.496767 -1.086011 0.308124 0.000000 0.000000 0.000000 -33.135655 -52.878587 -26.559848 12.193588 -9.664194 -2.781044 24.339502 17.158354 -1.470009 -23.809505 -25.159738 9.188899 -4.740592 5.662284 -16.177662 0.000000 0.000000 0.000000 -35.511496 -49.906577 -29.325325 8.514412 -1.975960 -1.812336 3.117637 -0.758097 -1.312221 0.165287 -0.107904 0.036077 0.000000 0.000000 0.000000 6.813671 0.374091 -0.452943 4.204210 5.779674 1.500092 -16.300262 -8.100153 11.185593 0.000000 0.000000 0.000000 5.618040 -1.120398 -0.899699 4.460017 -4.966891 -10.488191 5.847281 -8.162216 0.095711 -30.967511 7.402212 -31.819150 7.075361 -48.742252 4.320540 0.000000 0.000000 0.000000 4.040240 -1.442306 -0.042753 -2.259418 9.264142 18.341911 2.811641 -0.912727 0.116713 -13.369429 3.259160 58.899904 -8.037346 36.242620 1.729180 0.000000 0.000000 0.000000 
2.895718 34.596142 1.610331 0.000000 0.000000 0.000000 -39.024446 -56.867895 -31.771554 7.207874 19.125428 -5.847150 27.441912 1.796858 3.843569 -15.111831 9.242623 1.140560 -0.581651 -0.868123 0.124007 0.000000 0.000000 0.000000 -35.613392 -55.242608 -29.325072 11.298987 -9.628584 -2.723192 24.920167 15.899806 -1.057256 -23.335249 -24.358931 7.698999 -4.491924 5.589229 -14.688464 0.000000 0.000000 0.000000 -37.660765 -52.017590 -31.932173 8.491414 -2.090449 -1.952901 3.011588 -0.787492 -1.336152 0.178851 -0.140389 0.055267 0.000000 0.000000 0.000000 6.908029 0.350780 -0.417934 4.239242 5.949953 1.467309 -16.600730 -7.424394 11.375485 0.000000 0.000000 0.000000 5.743067 -1.124607 -0.848567 4.611429 -4.654115 -10.235093 5.890568 -8.269027 -0.052054 -31.091141 7.429369 -31.923587 7.073114 -48.781341 4.387188 0.000000 0.000000 0.000000 4.124810 -1.481686 -0.059066 -2.257496 9.359219 18.510593 3.244989 -0.630555 0.160909 -13.675614 3.297510 58.909118 -8.055706 36.128996 1.511368 0.000000 0.000000 0.000000 
3.110918 34.596809 1.875914 0.000000 0.000000 0.000000 -41.933755 -58.749094 -35.009091 8.364430 20.050184 -5.877293 27.018488 1.655523 3.220762 -16.211309 9.207827 1.981407 -0.143941 -0.729342 0.022501 0.000000 0.000000 0.000000 -38.246416 -57.380863 -32.292479 10.464549 -9.392524 -2.437286 25.993069 14.538917 -0.554660 -23.114561 -23.615649 6.572930 -4.296780 5.468860 -13.121813 0.000000 0.000000 0.000000 -39.725886 -53.906325 -34.482384 8.480953 -2.260714 -2.032369 2.902580 -0.811600 -1.379649 0.186421 -0.180744 0.059490 0.000000 0.000000 0.000000 7.041082 0.328058 -0.405851 4.249243 6.103207 1.496376 -16.875316 -6.810859 11.707044 0.000000 0.000000 0.000000 5.889786 -1.132024 -0.824851 4.779616 -4.290899 -10.022042 5.999544 -8.447571 -0.112180 -31.306377 7.433966 -32.057561 7.094701 -48.834084 4.475023 0.000000 0.000000 0.000000 4.188978 -1.532175 -0.093250 -2.268503 9.401281 18.671842 3.685030 -0.347811 0.142276 -13.902801 3.322394 58.950413 -8.052571 36.069300 1.330679 0.000000 0.000000 0.000000 
3.277822 34.573498 2.080491 0.000000 0.000000 0.000000 -44.948730 -60.526124 -38.408445 9.266025 21.404621 -5.577056 26.828464 1.525336 2.399363 -17.493170 8.717133 2.727075 0.640229 -0.707905 0.240559 0.000000 0.000000 0.000000 -41.010351 -59.330520 -35.449023 9.924345 -9.070321 -1.976193 27.580324 13.069700 0.052548 -23.507851 -23.108051 5.767135 -3.837066 5.264461 -11.755915 0.000000 0.000000 0.000000 -41.792773 -55.567848 -37.019058 8.572270 -2.478983 -2.062637 2.792592 -0.819215 -1.440768 0.169834 -0.211514 0.056409 0.000000 0.000000 0.000000 7.187010 0.308593 -0.417724 4.238192 6.228161 1.565803 -17.118037 -6.241447 12.145827 0.000000 0.000000 0.000000 6.029867 -1.140629 -0.832292 4.953627 -3.906211 -9.877036 6.135819 -8.680616 -0.105386 -31.615382 7.402032 -32.185979 7.123992 -48.896843 4.576601 0.000000 0.000000 0.000000 4.216668 -1.587070 -0.141973 -2.292172 9.374657 18.787943 4.071629 -0.117768 0.074647 -14.062020 3.351897 59.079115 -8.037304 36.049335 1.210266 0.000000 0.000000 0.000000 
3.404984 34.531780 2.241348 0.000000 0.000000 0.000000 -48.150822 -62.216343 -41.997556 10.006532 23.036056 -5.127773 26.911417 1.350206 1.481342 -18.769239 7.836599 3.161079 1.296850 -0.823569 0.934675 0.000000 0.000000 0.000000 -43.861644 -61.068612 -38.718830 9.903934 -8.858635 -1.438210 29.409551 11.451193 0.783951 -24.818093 -23.031956 5.045439 -2.907053 4.991071 -10.831473 0.000000 0.000000 0.000000 -43.797427 -57.018931 -39.500896 8.802672 -2.727245 -2.053199 2.695513 -0.801159 -1.504488 0.149358 -0.221339 0.047325 0.000000 0.000000 0.000000 7.307530 0.295973 -0.448348 4.223532 6.328230 1.637799 -17.347519 -5.724000 12.632249 0.000000 0.000000 0.000000 6.148149 -1.143413 -0.863463 5.132710 -3.530031 -9.823787 6.288031 -8.979559 -0.048146 -32.005146 7.325946 -32.277083 7.161133 -48.985382 4.698874 0.000000 0.000000 0.000000 4.218120 -1.632903 -0.196364 -2.326050 9.252400 18.814847 4.406840 0.093033 -0.036735 -14.177400 3.367273 59.323895 -8.016685 36.064966 1.158100 0.000000 0.000000 0.000000 
